<?xml version="1.0" encoding="utf-8"?>
<!-- Generator: Adobe Illustrator 21.0.0, SVG Export Plug-In . SVG Version: 6.00 Build 0)  -->
<svg version="1.1" id="图层_1" xmlns="http://www.w3.org/2000/svg" xmlns:xlink="http://www.w3.org/1999/xlink" x="0px" y="0px"
	 viewBox="0 0 172 222" style="enable-background:new 0 0 172 222;" xml:space="preserve">
<style type="text/css">
	.st0{fill:#26D644;}
</style>
<g>
	<path class="st0" d="M172,48L124.8,0H0v222h16.3l8.3-4l8.2,4H41l8-4l8.2,4h8.2l8.1-4l8,4h8.7l8-4l8,4h8.5l8-4l8,4h8.4l8.1-4l8.1,4
		H172V48z M123,49.2V10.4l38.1,38.8H123z M114.7,57.4h49v156.4h-4.5l-7.3-3.9h-8.7l-8,3.9l-8-3.9h-8.2l-8.3,3.9l-8.1-3.9h-8.2
		l-8.2,3.9l-8-3.9h-8.5l-8,3.9l-7.9-3.9h-9l-7.9,3.9l-7.8-3.9h-8.5l-8.1,3.9H8V7.9h106.6V57.4z"/>
	<path class="st0" d="M155.6,65.7h-49.3V16.2h-90v189.4h139.2V65.7z M122.3,85.6c4.5-3,8.6-5.7,12.3-8.1l5.8,7.8
		c-3.7,2.3-9.7,7.3-18.1,15.1c-4.6,4.3-8.3,8-11.3,11.1c-4.2,4.3-8.6,9.2-13.4,14.6c-10.3,11.8-20,23.9-29.1,36.6l-39.2-38.2
		l22-17.5l18.8,17.9c3.6-3.1,7.3-6.2,11.2-9.3c3.6-2.9,6.9-5.5,10.1-8c4.4-3.4,7.7-5.9,9.9-7.5c4-2.9,7.5-5.3,10.3-7.3
		C116.4,89.7,119.9,87.2,122.3,85.6z"/>
</g>
</svg>
